{
  "accessors": [
    {
      "bufferView": 2,
      "componentType": 5126,
      "count": 6940,
      "max": [
        0.38123983144760132,
        0.5897178053855896,
        0.99970823526382446
      ],
      "min": [
        -0.28515583276748657,
        -0.013476739637553692,
        -0.014169675298035145
      ],
      "type": "VEC3"
    },
    {
      "bufferView": 2,
      "byteOffset": 83280,
      "componentType": 5126,
      "count": 6940,
      "max": [
        0.99999344348907471,
        1,
        1
      ],
      "min": [
        -0.99999344348907471,
        -1,
        -1
      ],
      "type": "VEC3"
    },
    {
      "bufferView": 1,
      "componentType": 5126,
      "count": 6940,
      "max": [
        0.9863775372505188,
        0.99390780925750732
      ],
      "min": [
        0.0060922247357666492,
        0.0060922247357666492
      ],
      "type": "VEC2"
    },
    {
      "bufferView": 0,
      "componentType": 5125,
      "count": 34032,
      "max": [
        6939
      ],
      "min": [
        0
      ],
      "type": "SCALAR"
    },
    {
      "bufferView": 2,
      "byteOffset": 166560,
      "componentType": 5126,
      "count": 3663,
      "max": [
        0.27299818396568298,
        0.29168707132339478,
        1.023090124130249
      ],
      "min": [
        -0.4072723388671875,
        -0.31148108839988708,
        0.0072060464881360531
      ],
      "type": "VEC3"
    },
    {
      "bufferView": 2,
      "byteOffset": 210516,
      "componentType": 5126,
      "count": 3663,
      "max": [
        1,
        1,
        1
      ],
      "min": [
        -1,
        -1,
        -1
      ],
      "type": "VEC3"
    },
    {
      "bufferView": 1,
      "byteOffset": 55520,
      "componentType": 5126,
      "count": 3663,
      "max": [
        11.378840446472168,
        10.921554565429688
      ],
      "min": [
        -10.378840446472168,
        -9.9613685607910156
      ],
      "type": "VEC2"
    },
    {
      "bufferView": 0,
      "byteOffset": 136128,
      "componentType": 5125,
      "count": 18192,
      "max": [
        3662
      ],
      "min": [
        0
      ],
      "type": "SCALAR"
    },
    {
      "bufferView": 2,
      "byteOffset": 254472,
      "componentType": 5126,
      "count": 3032,
      "max": [
        0.35340720415115356,
        0.2339978814125061,
        0.5631105899810791
      ],
      "min": [
        -0.34745252132415771,
        -0.2346307784318924,
        -0.063595563173294067
      ],
      "type": "VEC3"
    },
    {
      "bufferView": 2,
      "byteOffset": 290856,
      "componentType": 5126,
      "count": 3032,
      "max": [
        0.99999284744262695,
        0.99972307682037354,
        1
      ],
      "min": [
        -0.99985611438751221,
        -0.99999368190765381,
        -0.99998879432678223
      ],
      "type": "VEC3"
    },
    {
      "bufferView": 1,
      "byteOffset": 84824,
      "componentType": 5126,
      "count": 3032,
      "max": [
        3.3915820121765137,
        3.3303878307342529
      ],
      "min": [
        -2.3915820121765137,
        -2.3482687473297119
      ],
      "type": "VEC2"
    },
    {
      "bufferView": 0,
      "byteOffset": 208896,
      "componentType": 5125,
      "count": 15696,
      "max": [
        3031
      ],
      "min": [
        0
      ],
      "type": "SCALAR"
    }
  ],
  "asset": {
    "extras": {
      "author": "yanix (https://sketchfab.com/yanix)",
      "license": "CC-BY-4.0 (http://creativecommons.org/licenses/by/4.0/)",
      "source": "https://sketchfab.com/3d-models/modern-chair-2f982d1d80b64da1a81d32498897d599",
      "title": "Modern Chair"
    },
    "generator": "Sketchfab-7.91.0",
    "version": "2.0"
  },
  "bufferViews": [
    {
      "buffer": 0,
      "byteLength": 271680,
      "byteOffset": 0,
      "name": "floatBufferViews",
      "target": 34963
    },
    {
      "buffer": 0,
      "byteLength": 109080,
      "byteOffset": 271680,
      "byteStride": 8,
      "name": "floatBufferViews",
      "target": 34962
    },
    {
      "buffer": 0,
      "byteLength": 327240,
      "byteOffset": 380760,
      "byteStride": 12,
      "name": "floatBufferViews",
      "target": 34962
    }
  ],
  "buffers": [
    {
      "byteLength": 708000,
      "uri": "scene.bin"
    }
  ],
  "materials": [
    {
      "doubleSided": true,
      "emissiveFactor": [
        0,
        0,
        0
      ],
      "name": "modern_chair_chrome_mat",
      "pbrMetallicRoughness": {
        "baseColorFactor": [
          0.89618125953445504,
          0.89618125953445504,
          0.89618125953445504,
          1
        ],
        "metallicFactor": 0.97732469509999997,
        "roughnessFactor": 0.026105182899999999
      }
    },
    {
      "doubleSided": true,
      "emissiveFactor": [
        0,
        0,
        0
      ],
      "name": "modern_chair_black_plastic_mat",
      "pbrMetallicRoughness": {
        "baseColorFactor": [
          0.0066956400000000001,
          0.0066956400000000001,
          0.0066956400000000001,
          1
        ],
        "metallicFactor": 0,
        "roughnessFactor": 0.38586128050000001
      }
    },
    {
      "doubleSided": true,
      "emissiveFactor": [
        0,
        0,
        0
      ],
      "name": "modern_chair_leather_mat",
      "pbrMetallicRoughness": {
        "baseColorFactor": [
          0.80000000000000004,
          0.67636700000000005,
          0.52332000000000001,
          1
        ],
        "metallicFactor": 0,
        "roughnessFactor": 0.39195884146341464
      }
    }
  ],
  "meshes": [
    {
      "name": "modern_chair_chrome_object_modern_chair_chrome_mat_0",
      "primitives": [
        {
          "attributes": {
            "NORMAL": 1,
            "POSITION": 0,
            "TEXCOORD_0": 2
          },
          "indices": 3,
          "material": 0,
          "mode": 4
        }
      ]
    },
    {
      "name": "modern_chair_plastic_object_modern_chair_black_plastic_mat_0",
      "primitives": [
        {
          "attributes": {
            "NORMAL": 5,
            "POSITION": 4,
            "TEXCOORD_0": 6
          },
          "indices": 7,
          "material": 1,
          "mode": 4
        }
      ]
    },
    {
      "name": "modern_chair_leather_object_modern_chair_leather_mat_0",
      "primitives": [
        {
          "attributes": {
            "NORMAL": 9,
            "POSITION": 8,
            "TEXCOORD_0": 10
          },
          "indices": 11,
          "material": 2,
          "mode": 4
        }
      ]
    }
  ],
  "nodes": [
    {
      "children": [
        1
      ],
      "name": "RootNode (gltf orientation matrix)",
      "rotation": [
        -0.70710678118654746,
        -0,
        -0,
        0.70710678118654757
      ]
    },
    {
      "children": [
        2
      ],
      "name": "RootNode (model correction matrix)"
    },
    {
      "children": [
        3
      ],
      "matrix": [
        1,
        0,
        0,
        0,
        0,
        0,
        1,
        0,
        0,
        -1,
        0,
        0,
        0,
        0,
        0,
        1
      ],
      "name": "modern_chair.fbx"
    },
    {
      "children": [
        4
      ],
      "name": "RootNode"
    },
    {
      "children": [
        5,
        6,
        8
      ],
      "matrix": [
        100,
        0,
        0,
        0,
        -0,
        -1.6292067939183141e-05,
        -99.999999999998678,
        0,
        0,
        99.999999999998678,
        -1.6292067939183141e-05,
        0,
        -10.529520988464355,
        2.3381888866424561,
        29.780582427978516,
        1
      ],
      "name": "modern_chair_chrome_object"
    },
    {
      "mesh": 0,
      "name": "modern_chair_chrome_object_modern_chair_chrome_mat_0"
    },
    {
      "children": [
        7
      ],
      "matrix": [
        1,
        0,
        0,
        0,
        0,
        1,
        -2.646977960169688e-23,
        0,
        0,
        2.646977960169688e-23,
        1,
        0,
        0.10529521107673645,
        0.29780581593513489,
        -0.023381888866424561,
        1
      ],
      "name": "modern_chair_plastic_object"
    },
    {
      "mesh": 1,
      "name": "modern_chair_plastic_object_modern_chair_black_plastic_mat_0"
    },
    {
      "children": [
        9
      ],
      "matrix": [
        1,
        0,
        0,
        0,
        0,
        1,
        -2.646977960169688e-23,
        0,
        0,
        2.646977960169688e-23,
        1,
        0,
        0.042474091053009033,
        0.28659495711326599,
        0.45303046703338623,
        1
      ],
      "name": "modern_chair_leather_object"
    },
    {
      "mesh": 2,
      "name": "modern_chair_leather_object_modern_chair_leather_mat_0"
    }
  ],
  "scene": 0,
  "scenes": [
    {
      "name": "OSG_Scene",
      "nodes": [
        0
      ]
    }
  ]
}

